:SAMPLES-PER-SECOND 30
:FULLY-SPECIFIED
:DEGREES
173
root  31.7144 36.8421 14.4123 170.091 61.3669 173.488
RightUpLeg  -25.5473 -19.542 -6.2966
RightLeg  77.82 -0.649922 -5.23531
RightFoot  6.42406 -0.393517 2.82143
RightToes  0.00048216 0.542163 -0.142577
Spine  32.4508 3.3459 3.13636
Spine1  11.3919 9.28598 -15.5435
HEad  -0.733631 0.652889 -3.72325
LeftShoulder1  9.20109 -14.6515 -44.1259
LeftArm  -14.8591 9.45515 -22.638
LeftForeArm  10.066 -65.2579 -24.6095
LeftHand  -0.25398 0.0180481 5.50724
RightShoulder  6.36956 12.8185 33.069
RightArm  33.0481 43.5833 58.2158
RightForeArm  -26.0471 24.7279 6.49473
RightHand  -0.0368993 -1.1149 -0.77205
LeftUpLeg  -26.3728 9.55627 -12.6647
LeftLeg  35.8901 4.02637 3.49523
LeftFoot  -5.3354 -0.577217 11.5764
LeftToes  1.06246e-005 4.65856e-005 -8.18501e-006
174
root  32.9081 37.1809 14.5942 172.506 57.5051 175.433
RightUpLeg  -29.9261 -18.3384 -7.22287
RightLeg  71.8385 -0.931626 -4.11999
RightFoot  4.91019 -0.455512 3.41241
RightToes  0.00048216 0.542163 -0.142577
Spine  34.9457 2.23758 3.8992
Spine1  10.9013 7.88377 -14.1884
HEad  -1.52332 -0.67789 -4.17442
LeftShoulder1  9.3378 -15.1303 -43.6031
LeftArm  -12.639 4.61701 -24.2703
LeftForeArm  6.66864 -61.4606 -20.6899
LeftHand  -0.25398 0.0180481 5.50724
RightShoulder  6.24749 12.6809 32.647
RightArm  28.2951 44.6548 55.3814
RightForeArm  -23.6867 24.2895 6.29876
RightHand  -0.0042818 -0.362088 -0.019596
LeftUpLeg  -24.964 6.93502 -10.9689
LeftLeg  35.7033 2.96121 2.6529
LeftFoot  -6.19054 -0.427753 10.3012
LeftToes  1.06246e-005 4.65856e-005 -8.18501e-006
175
root  34.097 37.4903 14.7851 174.526 53.8366 177.11
RightUpLeg  -32.1457 -17.204 -8.46085
RightLeg  62.4751 -2.04932 -4.73729
RightFoot  3.3901 -0.296495 2.46132
RightToes  0.00048216 0.542163 -0.142577
Spine  37.4262 1.28885 4.95685
Spine1  10.1827 6.80024 -12.8338
HEad  -2.09051 -2.26658 -4.48074
LeftShoulder1  9.54997 -15.7566 -43.1132
LeftArm  -10.5037 0.0496729 -26.4364
LeftForeArm  3.9132 -57.1508 -17.3461
LeftHand  -0.25398 0.0180481 5.50724
RightShoulder  6.03842 12.4716 31.8437
RightArm  23.5065 45.3657 52.199
RightForeArm  -21.3465 23.9166 6.12179
RightHand  0.0532302 0.463872 1.0135
LeftUpLeg  -23.5815 4.16911 -9.05992
LeftLeg  35.3511 2.00446 1.89305
LeftFoot  -7.11959 -0.284545 8.87571
LeftToes  1.06246e-005 4.65856e-005 -8.18501e-006
176
root  35.3735 37.6964 14.9688 175.698 50.02 177.383
RightUpLeg  -32.3559 -16.7228 -10.7128
RightLeg  50.0311 -4.09041 -5.59948
RightFoot  1.87305 -0.188305 1.74665
RightToes  0.00048216 0.542163 -0.142577
Spine  39.1522 0.617861 4.93402
Spine1  9.55018 5.64181 -11.1704
HEad  -2.56632 -3.51087 -4.71664
LeftShoulder1  9.74865 -16.3769 -42.6031
LeftArm  -8.90623 -3.78379 -29.0348
LeftForeArm  2.11145 -52.876 -14.7635
LeftHand  -0.25398 0.0180481 5.50724
RightShoulder  5.84228 12.3242 30.9506
RightArm  19.8133 45.9213 48.8945
RightForeArm  -19.7736 23.7335 6.0234
RightHand  0.112391 1.29376 1.81981
LeftUpLeg  -22.8328 1.27689 -7.80549
LeftLeg  35.3035 1.07672 1.18557
LeftFoot  -8.00809 -0.178307 7.7837
LeftToes  1.06246e-005 4.65856e-005 -8.18501e-006
177
root  36.7683 37.7859 15.1211 176.605 45.7897 176.572
RightUpLeg  -31.2899 -16.6661 -14.0066
RightLeg  35.6685 -5.28606 -4.34884
RightFoot  1.41235 -0.239444 2.22676
RightToes  0.00048216 0.542163 -0.142577
Spine  39.9004 0.0537984 4.09078
Spine1  8.79059 4.1681 -9.21562
HEad  -3.07229 -4.45609 -4.85533
LeftShoulder1  9.86895 -16.9905 -41.7793
LeftArm  -7.79985 -6.65359 -31.9436
LeftForeArm  1.10465 -49.0077 -12.8463
LeftHand  -0.25398 0.0180481 5.50724
RightShoulder  5.70894 12.1825 30.4283
RightArm  16.9362 46.1545 45.4542
RightForeArm  -18.9158 24.1025 6.05684
RightHand  0.142384 1.87573 2.08688
LeftUpLeg  -22.9187 -2.04392 -7.1085
LeftLeg  35.6842 0.134642 0.472869
LeftFoot  -9.09827 -0.0759628 6.64611
LeftToes  1.06246e-005 4.65856e-005 -8.18501e-006
178
root  38.2302 37.7602 15.2498 177.613 41.7102 175.49
RightUpLeg  -29.6772 -15.6903 -17.6869
RightLeg  21.7516 -4.98352 -2.49968
RightFoot  0.427666 -0.262809 2.57146
RightToes  0.00048216 0.542163 -0.142577
Spine  40.1422 -0.398852 3.23849
Spine1  7.8759 2.7438 -7.25811
HEad  -3.74532 -5.27881 -5.00717
LeftShoulder1  9.92779 -17.6337 -40.6588
LeftArm  -6.92033 -8.78919 -34.9014
LeftForeArm  0.600529 -45.7836 -11.4721
LeftHand  -0.25398 0.0180481 5.50724
RightShoulder  5.61802 11.9569 30.3717
RightArm  13.989 46 41.789
RightForeArm  -18.2748 25.3187 6.3097
RightHand  0.142493 1.93089 2.06322
LeftUpLeg  -23.5893 -5.2669 -6.37547
LeftLeg  36.5058 -0.989626 -0.416732
LeftFoot  -10.549 0.0274309 5.12969
LeftToes  1.06246e-005 4.65856e-005 -8.18501e-006
179
root  39.748 37.6162 15.4019 178.491 38.17 174.429
RightUpLeg  -28.1428 -15.0643 -20.2226
RightLeg  11.0395 -3.1739 -1.80442
RightFoot  -2.33757 -0.236661 2.83159
RightToes  0.00048216 0.542163 -0.142577
Spine  40.3686 -0.547635 2.25007
Spine1  7.14668 1.58644 -5.16953
HEad  -4.54939 -5.88033 -5.2591
LeftShoulder1  9.95292 -18.161 -39.6796
LeftArm  -6.15801 -10.7422 -37.534
LeftForeArm  0.113504 -43.0556 -10.4505
LeftHand  -0.25398 0.0180481 5.50724
RightShoulder  5.52042 11.7251 30.2833
RightArm  11.1464 45.7857 38.3462
RightForeArm  -17.7495 26.9271 6.66833
RightHand  0.135851 1.61517 2.08406
LeftUpLeg  -24.5376 -7.90608 -5.37104
LeftLeg  37.9787 -1.97461 -1.27552
LeftFoot  -12.2437 0.102544 3.62539
LeftToes  1.06246e-005 4.65856e-005 -8.18501e-006
180
root  41.3041 37.427 15.6179 179.379 34.9284 173.728
RightUpLeg  -27.604 -16.6838 -20.2943
RightLeg  6.1017 0.377234 -1.65017
RightFoot  -4.1897 -0.267135 3.81992
RightToes  0.00048216 0.542163 -0.142577
Spine  40.8487 -0.526552 1.29415
Spine1  6.59921 0.498263 -2.63649
HEad  -5.33975 -6.26889 -5.38126
LeftShoulder1  9.9468 -18.4605 -39.0534
LeftArm  -5.54081 -12.9333 -39.6207
LeftForeArm  -0.693278 -40.2767 -9.52992
LeftHand  -0.25398 0.0180481 5.50724
RightShoulder  5.38218 11.5666 29.7389
RightArm  8.96014 45.7559 35.8429
RightForeArm  -17.2883 28.1593 6.94891
RightHand  0.127211 1.39114 2.03222
LeftUpLeg  -25.5615 -10.3413 -3.83219
LeftLeg  39.6868 -2.44138 -1.78566
LeftFoot  -13.8611 0.131255 2.19967
LeftToes  1.06246e-005 4.65856e-005 -8.18501e-006
181
root  42.8792 37.2489 15.9131 -179.487 31.7423 173.56
RightUpLeg  -28.2744 -16.7861 -19.9585
RightLeg  7.39738 1.40611 -1.06772
RightFoot  -1.83739 -0.47571 5.46376
RightToes  0.00048216 0.542163 -0.142577
Spine  41.8696 -0.775532 1.0575
Spine1  5.85636 -0.489076 -0.569141
HEad  -6.27915 -6.69927 -5.07563
LeftShoulder1  9.92106 -18.739 -38.3979
LeftArm  -5.16836 -15.4444 -41.1598
LeftForeArm  -1.46815 -37.251 -8.61121
LeftHand  -0.25398 0.0180481 5.50724
RightShoulder  5.21979 11.4008 29.0333
RightArm  7.19131 45.861 34.3036
RightForeArm  -16.7445 28.861 7.09961
RightHand  0.108526 1.54782 1.65744
LeftUpLeg  -26.7934 -12.9211 -1.53303
LeftLeg  41.225 -2.76872 -2.21099
LeftFoot  -15.1553 0.095141 0.164176
LeftToes  1.06246e-005 4.65856e-005 -8.18501e-006
182
root  44.459 37.0796 16.2631 -178.119 28.6977 173.882
RightUpLeg  -30.0756 -16.2533 -19.1661
RightLeg  11.7354 0.775637 -0.707002
RightFoot  4.31975 -1.0284 7.64648
RightToes  0.00048216 0.542163 -0.142577
Spine  43.5521 -1.57382 1.90061
Spine1  5.04451 -1.14328 -0.0819497
HEad  -7.86138 -7.17282 -4.45293
LeftShoulder1  9.91275 -19.2264 -37.4355
LeftArm  -5.32186 -18.3089 -42.1626
LeftForeArm  -1.52943 -34.5569 -7.82479
LeftHand  -0.25398 0.0180481 5.50724
RightShoulder  5.06945 11.1777 28.5303
RightArm  5.18302 46.316 33.0422
RightForeArm  -16.1481 29.1676 7.14924
RightHand  0.0865722 2.15581 1.11686
LeftUpLeg  -28.6446 -14.9019 1.37411
LeftLeg  43.1346 -3.03163 -2.64561
LeftFoot  -15.5129 0.00341988 -2.5534
LeftToes  1.06246e-005 4.65856e-005 -8.18501e-006
183
root  45.9803 36.9399 16.6395 -176.654 25.7298 174.636
RightUpLeg  -32.3618 -16.8523 -17.814
RightLeg  16.5465 -0.204454 -0.331302
RightFoot  9.48551 -1.6577 9.39854
RightToes  0.00048216 0.542163 -0.142577
Spine  45.6534 -2.77841 3.37892
Spine1  4.76084 -1.64714 -0.339552
HEad  -10.2701 -7.3708 -3.88991
LeftShoulder1  9.9358 -19.7709 -36.5325
LeftArm  -6.32941 -21.6498 -42.7104
LeftForeArm  -0.872595 -32.7683 -7.29766
LeftHand  -0.25398 0.0180481 5.50724
RightShoulder  4.91401 11.0443 27.7581
RightArm  2.90946 47.6449 31.7023
RightForeArm  -15.6427 28.72 7.01338
RightHand  0.0780938 3.21255 0.759841
LeftUpLeg  -31.379 -14.7863 4.1695
LeftLeg  46.1711 -2.17468 -1.98421
LeftFoot  -13.6245 -0.00611396 -4.5056
LeftToes  1.06246e-005 4.65856e-005 -8.18501e-006
184
root  47.3678 36.8984 17.0394 -175.167 22.7718 175.707
RightUpLeg  -34.7534 -20.9357 -14.3254
RightLeg  20.651 1.17591 0.309688
RightFoot  10.6266 -1.7788 9.52393
RightToes  0.00048216 0.542163 -0.142577
Spine  47.8799 -3.94529 4.87218
Spine1  5.0162 -2.26427 0.287494
HEad  -13.073 -7.23428 -3.48895
LeftShoulder1  9.93023 -20.1169 -35.894
LeftArm  -7.96386 -25.4335 -43.2522
LeftForeArm  -0.28649 -31.5953 -6.95708
LeftHand  -0.25398 0.0180481 5.50724
RightShoulder  4.71717 11.1073 26.2133
RightArm  0.807397 49.8617 30.375
RightForeArm  -15.2429 27.1569 6.60999
RightHand  0.0868079 4.45834 0.663118
LeftUpLeg  -34.6971 -11.7025 5.79634
LeftLeg  49.7545 0.393533 0.973052
LeftFoot  -9.11806 0.119989 -4.00421
LeftToes  1.06246e-005 4.65856e-005 -8.18501e-006
185
root  48.6158 36.9729 17.4507 -173.632 20.2949 176.69
RightUpLeg  -37.0256 -25.472 -9.83924
RightLeg  23.3878 2.90943 1.14896
RightFoot  9.3442 -1.42247 8.12543
RightToes  0.00048216 0.542163 -0.142577
Spine  50.0987 -4.6912 6.15027
Spine1  5.27333 -2.62994 1.31635
HEad  -15.9088 -7.17001 -2.99836
LeftShoulder1  9.80534 -20.5114 -34.7063
LeftArm  -9.38533 -29.4453 -44.506
LeftForeArm  -0.178919 -30.2022 -6.59678
LeftHand  -0.25398 0.0180481 5.50724
RightShoulder  4.50835 11.1213 24.6865
RightArm  -1.33164 52.3364 28.5459
RightForeArm  -14.9126 24.9825 6.07508
RightHand  0.120401 5.43827 0.888536
LeftUpLeg  -37.8893 -6.11373 5.33966
LeftLeg  52.0917 3.33296 5.02435
LeftFoot  -4.90136 0.0983831 -1.16877
LeftToes  1.06246e-005 4.65856e-005 -8.18501e-006
186
root  49.7687 37.1642 17.8218 -171.826 18.7359 177.11
RightUpLeg  -39.396 -28.0952 -5.7948
RightLeg  24.5183 3.70767 1.61889
RightFoot  8.22345 -0.993965 6.09454
RightToes  0.00048216 0.542163 -0.142577
Spine  52.216 -5.00814 7.03954
Spine1  5.33625 -2.3748 1.26796
HEad  -18.8154 -7.60951 -2.37414
LeftShoulder1  9.56682 -21.2462 -32.5231
LeftArm  -10.03 -33.5172 -46.3192
LeftForeArm  -0.134122 -28.3388 -6.1353
LeftHand  -0.25398 0.0180481 5.50724
RightShoulder  4.38367 10.9881 24.0861
RightArm  -4.74857 54.5593 25.322
RightForeArm  -14.3471 22.9867 5.72211
RightHand  0.214699 6.04113 1.75414
LeftUpLeg  -40.4657 0.853192 2.48718
LeftLeg  51.4314 4.84851 6.94924
LeftFoot  -4.31325 -0.0500399 1.31674
LeftToes  1.06246e-005 4.65856e-005 -8.18501e-006
187
root  50.8388 37.4388 18.0995 -169.539 17.7234 176.948
RightUpLeg  -42.0283 -29.1208 -2.56507
RightLeg  24.476 3.66871 1.60017
RightFoot  7.81163 -0.670861 4.29423
RightToes  0.00048216 0.542163 -0.142577
Spine  54.2058 -5.23076 7.39999
Spine1  5.11443 -1.94372 0.450942
HEad  -21.8164 -7.77902 -2.19244
LeftShoulder1  9.422 -22.1078 -30.6546
LeftArm  -10.2093 -37.3155 -47.2242
LeftForeArm  0.166926 -26.6334 -5.71677
LeftHand  -0.25398 0.0180481 5.50724
RightShoulder  4.47149 11.2557 24.1308
RightArm  -10.2513 56.2233 20.4815
RightForeArm  -13.0787 21.4183 5.79477
RightHand  0.370291 6.55652 3.14918
LeftUpLeg  -42.7228 8.04949 -2.40925
LeftLeg  47.4691 4.74271 5.9691
LeftFoot  -6.25928 0.01642 0.295454
LeftToes  1.06246e-005 4.65856e-005 -8.18501e-006
